<svg width="1280" height="2525" viewBox="0 0 1280 2525" fill="none" xmlns="http://www.w3.org/2000/svg">
<path d="M2222 509C2222 374.005 2055.33 244.539 1758.64 149.083C1461.96 53.6266 1059.57 1.01919e-05 640 0C220.428 -1.01919e-05 -181.96 53.6266 -478.643 149.083C-775.325 244.539 -942 374.005 -942 509L2222 509Z" fill="#DCFBD7"/>
<rect x="-494" y="452" width="2268" height="1575" fill="#DCFBD7"/>
<path d="M2222 1916C2222 2077.52 2055.33 2232.42 1758.64 2346.63C1461.96 2460.84 1059.57 2525 640 2525C220.428 2525 -181.96 2460.84 -478.643 2346.63C-775.325 2232.42 -942 2077.52 -942 1916L2222 1916Z" fill="#DCFBD7"/>
</svg>
