<svg width="30" height="30" viewBox="0 0 80 80" fill="none" xmlns="http://www.w3.org/2000/svg">
<path d="M55.0137 48.26H49.0287V56H44.6637V48.26H27.1587V45.11L43.2687 24.5H48.1287L32.6937 44.39H44.7987V37.55H49.0287V44.39H55.0137V48.26Z" fill="#5ABB4A"/>
<mask id="path-2-inside-1_151_562" fill="white">
<path d="M80 40C80 62.0914 62.0914 80 40 80C17.9086 80 0 62.0914 0 40C0 17.9086 17.9086 0 40 0C62.0914 0 80 17.9086 80 40ZM4.8 40C4.8 59.4404 20.5596 75.2 40 75.2C59.4404 75.2 75.2 59.4404 75.2 40C75.2 20.5596 59.4404 4.8 40 4.8C20.5596 4.8 4.8 20.5596 4.8 40Z"/>
</mask>
<path d="M80 40C80 62.0914 62.0914 80 40 80C17.9086 80 0 62.0914 0 40C0 17.9086 17.9086 0 40 0C62.0914 0 80 17.9086 80 40ZM4.8 40C4.8 59.4404 20.5596 75.2 40 75.2C59.4404 75.2 75.2 59.4404 75.2 40C75.2 20.5596 59.4404 4.8 40 4.8C20.5596 4.8 4.8 20.5596 4.8 40Z" fill="#F8FFF7" stroke="#5ABB4A" stroke-opacity="0.2" mask="url(#path-2-inside-1_151_562)"/>
<path d="M40 2.4C40 1.07452 41.0755 -0.00750762 42.3986 0.0719586C49.9971 0.528327 57.3262 3.1455 63.5114 7.63932C70.3453 12.6044 75.4319 19.6056 78.0423 27.6393C80.6526 35.6731 80.6526 44.3269 78.0423 52.3607C75.4319 60.3944 70.3453 67.3956 63.5114 72.3607C56.6775 77.3258 48.4472 80 40 80C31.5528 80 23.3225 77.3258 16.4886 72.3607C9.65468 67.3956 4.56806 60.3944 1.95774 52.3607C-0.404802 45.0895 -0.62906 37.3104 1.28496 29.9428C1.61825 28.6599 2.97967 27.9714 4.24028 28.381C5.50089 28.7906 6.18224 30.1432 5.85947 31.4288C4.25247 37.8294 4.47359 44.5705 6.52281 50.8774C8.81989 57.9471 13.2961 64.1081 19.31 68.4774C25.3238 72.8467 32.5665 75.2 40 75.2C47.4335 75.2 54.6762 72.8467 60.69 68.4774C66.7039 64.1081 71.1801 57.9471 73.4772 50.8774C75.7743 43.8077 75.7743 36.1923 73.4772 29.1226C71.1801 22.0529 66.7039 15.8919 60.69 11.5226C55.3251 7.62475 48.9822 5.33132 42.3983 4.88177C41.0759 4.79148 40 3.72548 40 2.4Z" fill="#96DD8A"/>
</svg>
