<svg width="30" height="30" viewBox="0 0 80 80" fill="none" xmlns="http://www.w3.org/2000/svg">
<path d="M38.7401 37.055C43.2401 37.055 46.5401 37.91 48.6401 39.62C50.7701 41.3 51.8351 43.61 51.8351 46.55C51.8351 48.41 51.3851 50.09 50.4851 51.59C49.6151 53.06 48.2801 54.23 46.4801 55.1C44.7101 55.94 42.5201 56.36 39.9101 56.36C37.6901 56.36 35.5451 56.03 33.4751 55.37C31.4051 54.68 29.6951 53.735 28.3451 52.535L30.4151 48.98C31.4951 50 32.8751 50.825 34.5551 51.455C36.2351 52.055 38.0051 52.355 39.8651 52.355C42.2351 52.355 44.0651 51.86 45.3551 50.87C46.6751 49.85 47.3351 48.47 47.3351 46.73C47.3351 44.84 46.6151 43.415 45.1751 42.455C43.7351 41.465 41.2751 40.97 37.7951 40.97H30.6401L32.3051 24.5H50.0801V28.415H36.0851L35.2301 37.055H38.7401Z" fill="#5ABB4A"/>
<mask id="path-2-inside-1_151_568" fill="white">
<path d="M80 40C80 62.0914 62.0914 80 40 80C17.9086 80 0 62.0914 0 40C0 17.9086 17.9086 0 40 0C62.0914 0 80 17.9086 80 40ZM4.8 40C4.8 59.4404 20.5596 75.2 40 75.2C59.4404 75.2 75.2 59.4404 75.2 40C75.2 20.5596 59.4404 4.8 40 4.8C20.5596 4.8 4.8 20.5596 4.8 40Z"/>
</mask>
<path d="M80 40C80 62.0914 62.0914 80 40 80C17.9086 80 0 62.0914 0 40C0 17.9086 17.9086 0 40 0C62.0914 0 80 17.9086 80 40ZM4.8 40C4.8 59.4404 20.5596 75.2 40 75.2C59.4404 75.2 75.2 59.4404 75.2 40C75.2 20.5596 59.4404 4.8 40 4.8C20.5596 4.8 4.8 20.5596 4.8 40Z" fill="#F8FFF7" stroke="#5ABB4A" stroke-opacity="0.2" stroke-width="2" mask="url(#path-2-inside-1_151_568)"/>
<path d="M80 40C80 62.0914 62.0914 80 40 80C17.9086 80 0 62.0914 0 40C0 17.9086 17.9086 0 40 0C62.0914 0 80 17.9086 80 40ZM4.8 40C4.8 59.4404 20.5596 75.2 40 75.2C59.4404 75.2 75.2 59.4404 75.2 40C75.2 20.5596 59.4404 4.8 40 4.8C20.5596 4.8 4.8 20.5596 4.8 40Z" fill="#96DD8A"/>
</svg>
