<svg width="30" height="30" viewBox="0 0 80 80" fill="none" xmlns="http://www.w3.org/2000/svg">
<path d="M41.844 37.73C44.934 38.03 47.289 38.99 48.909 40.61C50.529 42.2 51.339 44.24 51.339 46.73C51.339 48.53 50.889 50.165 49.989 51.635C49.089 53.075 47.739 54.23 45.939 55.1C44.169 55.94 41.994 56.36 39.414 56.36C37.164 56.36 35.004 56.03 32.934 55.37C30.864 54.68 29.169 53.735 27.849 52.535L29.919 48.98C30.999 50 32.379 50.825 34.059 51.455C35.739 52.055 37.524 52.355 39.414 52.355C41.754 52.355 43.569 51.86 44.859 50.87C46.179 49.88 46.839 48.515 46.839 46.775C46.839 45.035 46.194 43.685 44.904 42.725C43.614 41.765 41.664 41.285 39.054 41.285H36.534V38.135L44.454 28.415H29.289V24.5H50.079V27.56L41.844 37.73Z" fill="#5ABB4A"/>
<mask id="path-2-inside-1_150_538" fill="white">
<path d="M80 40C80 62.0914 62.0914 80 40 80C17.9086 80 0 62.0914 0 40C0 17.9086 17.9086 0 40 0C62.0914 0 80 17.9086 80 40ZM4.8 40C4.8 59.4404 20.5596 75.2 40 75.2C59.4404 75.2 75.2 59.4404 75.2 40C75.2 20.5596 59.4404 4.8 40 4.8C20.5596 4.8 4.8 20.5596 4.8 40Z"/>
</mask>
<path d="M80 40C80 62.0914 62.0914 80 40 80C17.9086 80 0 62.0914 0 40C0 17.9086 17.9086 0 40 0C62.0914 0 80 17.9086 80 40ZM4.8 40C4.8 59.4404 20.5596 75.2 40 75.2C59.4404 75.2 75.2 59.4404 75.2 40C75.2 20.5596 59.4404 4.8 40 4.8C20.5596 4.8 4.8 20.5596 4.8 40Z" fill="#F8FFF7" stroke="#5ABB4A" stroke-opacity="0.2" mask="url(#path-2-inside-1_150_538)"/>
<path d="M40 2.4C40 1.07452 41.0755 -0.00750452 42.3986 0.0719746C47.8827 0.401405 53.2492 1.85775 58.1596 4.35974C63.784 7.22551 68.6503 11.3817 72.3607 16.4886C76.071 21.5954 78.5201 27.5079 79.5075 33.7426C80.495 39.9773 79.9929 46.3572 78.0423 52.3607C76.0916 58.3641 72.7478 63.8207 68.2843 68.2843C63.8207 72.7478 58.3642 76.0916 52.3607 78.0423C46.3572 79.9929 39.9773 80.495 33.7426 79.5075C28.2994 78.6454 23.1018 76.6693 18.4714 73.7123C17.3543 72.9989 17.1202 71.4914 17.8993 70.419C18.6784 69.3467 20.1753 69.1166 21.2982 69.8209C25.3113 72.3376 29.7986 74.023 34.4935 74.7666C39.9801 75.6356 45.5944 75.1938 50.8774 73.4772C56.1605 71.7606 60.9622 68.8181 64.8902 64.8902C68.8181 60.9622 71.7606 56.1604 73.4772 50.8774C75.1938 45.5943 75.6356 39.98 74.7666 34.4935C73.8976 29.007 71.7425 23.804 68.4774 19.31C65.2123 14.8159 60.9299 11.1585 55.9805 8.63657C51.7451 6.47855 47.1242 5.20451 42.3982 4.88178C41.0758 4.79148 40 3.72548 40 2.4Z" fill="#96DD8A"/>
</svg>
