<svg width="30" height="30" viewBox="0 0 80 80" fill="none" xmlns="http://www.w3.org/2000/svg">
<path d="M44.0974 24.5V56H39.6424V28.415H32.5324V24.5H44.0974Z" fill="#5ABB4A"/>
<mask id="path-2-inside-1_150_532" fill="white">
<path d="M80 40C80 62.0914 62.0914 80 40 80C17.9086 80 0 62.0914 0 40C0 17.9086 17.9086 0 40 0C62.0914 0 80 17.9086 80 40ZM4.8 40C4.8 59.4404 20.5596 75.2 40 75.2C59.4404 75.2 75.2 59.4404 75.2 40C75.2 20.5596 59.4404 4.8 40 4.8C20.5596 4.8 4.8 20.5596 4.8 40Z"/>
</mask>
<path d="M80 40C80 62.0914 62.0914 80 40 80C17.9086 80 0 62.0914 0 40C0 17.9086 17.9086 0 40 0C62.0914 0 80 17.9086 80 40ZM4.8 40C4.8 59.4404 20.5596 75.2 40 75.2C59.4404 75.2 75.2 59.4404 75.2 40C75.2 20.5596 59.4404 4.8 40 4.8C20.5596 4.8 4.8 20.5596 4.8 40Z" fill="#F8FFF7" stroke="#5ABB4A" stroke-opacity="0.2" mask="url(#path-2-inside-1_150_532)"/>
<path d="M40 2.4C40 1.07452 41.0755 -0.00750762 42.3986 0.0719585C49.9971 0.528327 57.3262 3.1455 63.5114 7.63932C69.6966 12.1331 74.4505 18.2948 77.2326 25.3803C77.717 26.6141 77.0203 27.9713 75.7597 28.3809C74.4991 28.7905 73.1528 28.0967 72.6583 26.867C70.1962 20.7442 66.055 15.4204 60.69 11.5226C55.3251 7.62475 48.9822 5.33132 42.3983 4.88177C41.0759 4.79148 40 3.72548 40 2.4Z" fill="#96DD8A"/>
</svg>
