<svg width="30" height="30" viewBox="0 0 80 80" fill="none" xmlns="http://www.w3.org/2000/svg">
<path d="M51.8801 52.085V56H29.2451V52.94L42.0701 40.565C43.6301 39.065 44.6801 37.775 45.2201 36.695C45.7601 35.585 46.0301 34.475 46.0301 33.365C46.0301 31.715 45.4451 30.44 44.2751 29.54C43.1351 28.61 41.4851 28.145 39.3251 28.145C35.8451 28.145 33.1601 29.285 31.2701 31.565L28.2101 28.91C29.4401 27.41 31.0451 26.24 33.0251 25.4C35.0351 24.56 37.2701 24.14 39.7301 24.14C43.0301 24.14 45.6551 24.935 47.6051 26.525C49.5551 28.085 50.5301 30.215 50.5301 32.915C50.5301 34.595 50.1701 36.185 49.4501 37.685C48.7301 39.185 47.3651 40.895 45.3551 42.815L35.7251 52.085H51.8801Z" fill="#5ABB4A"/>
<mask id="path-2-inside-1_150_533" fill="white">
<path d="M80 40C80 62.0914 62.0914 80 40 80C17.9086 80 0 62.0914 0 40C0 17.9086 17.9086 0 40 0C62.0914 0 80 17.9086 80 40ZM4.8 40C4.8 59.4404 20.5596 75.2 40 75.2C59.4404 75.2 75.2 59.4404 75.2 40C75.2 20.5596 59.4404 4.8 40 4.8C20.5596 4.8 4.8 20.5596 4.8 40Z"/>
</mask>
<path d="M80 40C80 62.0914 62.0914 80 40 80C17.9086 80 0 62.0914 0 40C0 17.9086 17.9086 0 40 0C62.0914 0 80 17.9086 80 40ZM4.8 40C4.8 59.4404 20.5596 75.2 40 75.2C59.4404 75.2 75.2 59.4404 75.2 40C75.2 20.5596 59.4404 4.8 40 4.8C20.5596 4.8 4.8 20.5596 4.8 40Z" fill="#F8FFF7" stroke="#5ABB4A" stroke-opacity="0.2" mask="url(#path-2-inside-1_150_533)"/>
<path d="M40 2.4C40 1.07452 41.0755 -0.00750762 42.3986 0.0719586C49.9971 0.528327 57.3262 3.1455 63.5114 7.63932C70.3453 12.6044 75.4319 19.6056 78.0423 27.6393C80.6526 35.6731 80.6526 44.3269 78.0423 52.3607C75.6797 59.6318 71.2887 66.0571 65.4096 70.8926C64.3859 71.7346 62.8798 71.4914 62.1007 70.419C61.3216 69.3467 61.5655 67.8519 62.5822 67.0016C67.6445 62.768 71.428 57.1843 73.4772 50.8774C75.7743 43.8077 75.7743 36.1923 73.4772 29.1226C71.1801 22.0529 66.7039 15.8919 60.69 11.5226C55.3251 7.62475 48.9822 5.33132 42.3983 4.88177C41.0759 4.79148 40 3.72548 40 2.4Z" fill="#96DD8A"/>
</svg>
